<?xml version="1.0" encoding="UTF-8" standalone="no"?>
<svg
   xmlns:dc="http://purl.org/dc/elements/1.1/"
   xmlns:cc="http://creativecommons.org/ns#"
   xmlns:rdf="http://www.w3.org/1999/02/22-rdf-syntax-ns#"
   xmlns:svg="http://www.w3.org/2000/svg"
   xmlns="http://www.w3.org/2000/svg"
   xmlns:sodipodi="http://sodipodi.sourceforge.net/DTD/sodipodi-0.dtd"
   xmlns:inkscape="http://www.inkscape.org/namespaces/inkscape"
   sodipodi:docname="yudi.svg"
   inkscape:version="1.0 (4035a4fb49, 2020-05-01)"
   id="svg5600"
   version="1.1"
   viewBox="0 0 24.876955 8.1906881"
   height="8.1906881mm"
   width="24.876955mm">
  <defs
     id="defs5594" />
  <sodipodi:namedview
     fit-margin-bottom="0"
     fit-margin-right="0"
     fit-margin-left="0"
     fit-margin-top="0"
     inkscape:window-maximized="0"
     inkscape:window-y="0"
     inkscape:window-x="0"
     inkscape:window-height="728"
     inkscape:window-width="1350"
     showgrid="false"
     inkscape:document-rotation="0"
     inkscape:current-layer="layer1"
     inkscape:document-units="mm"
     inkscape:cy="23.428217"
     inkscape:cx="35.184452"
     inkscape:zoom="2.8"
     inkscape:pageshadow="2"
     inkscape:pageopacity="0.0"
     borderopacity="1.0"
     bordercolor="#666666"
     pagecolor="#ffffff"
     id="base" />
  <metadata
     id="metadata5597">
    <rdf:RDF>
      <cc:Work
         rdf:about="">
        <dc:format>image/svg+xml</dc:format>
        <dc:type
           rdf:resource="http://purl.org/dc/dcmitype/StillImage" />
        <dc:title></dc:title>
      </cc:Work>
    </rdf:RDF>
  </metadata>
  <g
     transform="translate(-119.09724,-64.696325)"
     id="layer1"
     inkscape:groupmode="layer"
     inkscape:label="Layer 1">
    <g
       style="font-style:normal;font-weight:normal;font-size:10.5833px;line-height:1.25;font-family:sans-serif;fill:#000000;fill-opacity:1;stroke:none;stroke-width:0.264583"
       id="text839"
       aria-label="Yudi">
      <path
         id="path6171"
         style="font-weight:bold;stroke-width:0.264583"
         d="m 119.09724,65.021885 h 2.17557 l 1.75699,2.749178 1.757,-2.749178 h 2.18074 l -2.94038,4.46483 v 3.250437 h -1.98954 v -3.250437 z" />
      <path
         id="path6173"
         style="font-weight:bold;stroke-width:0.264583"
         d="M 126.93136,70.484067 V 66.94941 h 1.86035 v 0.578774 q 0,0.470254 -0.005,1.183387 -0.005,0.707965 -0.005,0.945676 0,0.697629 0.0362,1.007687 0.0362,0.30489 0.12402,0.444416 0.11369,0.180867 0.29455,0.279052 0.18604,0.09818 0.42375,0.09818 0.57877,0 0.9095,-0.444415 0.33073,-0.444416 0.33073,-1.235063 V 66.94941 h 1.85001 v 5.787742 h -1.85001 v -0.837155 q -0.41858,0.506427 -0.88883,0.749305 -0.46509,0.237711 -1.02836,0.237711 -1.00252,0 -1.52962,-0.614947 -0.52193,-0.614948 -0.52193,-1.787999 z" />
      <path
         id="path6175"
         style="font-weight:bold;stroke-width:0.264583"
         d="m 138.47584,67.796901 v -3.100576 h 1.86035 v 8.040827 h -1.86035 v -0.837155 q -0.3824,0.511595 -0.84232,0.749305 -0.45992,0.237711 -1.06453,0.237711 -1.0697,0 -1.757,-0.847491 -0.68729,-0.852658 -0.68729,-2.191073 0,-1.338416 0.68729,-2.185906 0.6873,-0.852659 1.757,-0.852659 0.59944,0 1.05936,0.242879 0.46509,0.23771 0.84749,0.744138 z m -1.21956,3.746529 q 0.59428,0 0.90433,-0.43408 0.31523,-0.434081 0.31523,-1.260901 0,-0.826821 -0.31523,-1.260901 -0.31005,-0.434081 -0.90433,-0.434081 -0.58911,0 -0.90433,0.434081 -0.31006,0.43408 -0.31006,1.260901 0,0.82682 0.31006,1.260901 0.31522,0.43408 0.90433,0.43408 z" />
      <path
         id="path6177"
         style="font-weight:bold;stroke-width:0.264583"
         d="m 142.12418,66.94941 h 1.85001 v 5.787742 h -1.85001 z m 0,-2.253085 h 1.85001 v 1.508947 h -1.85001 z" />
    </g>
  </g>
</svg>
